<svg width="34" height="34" viewBox="0 0 34 34" fill="none" xmlns="http://www.w3.org/2000/svg">
<path d="M13.6667 24.4999V9.49992L23.6667 16.9999L13.6667 24.4999ZM17 0.333252C14.8113 0.333252 12.6441 0.764348 10.622 1.60193C8.59989 2.4395 6.76257 3.66716 5.21493 5.21481C2.08932 8.34041 0.333374 12.5796 0.333374 16.9999C0.333374 21.4202 2.08932 25.6594 5.21493 28.785C6.76257 30.3327 8.59989 31.5603 10.622 32.3979C12.6441 33.2355 14.8113 33.6666 17 33.6666C21.4203 33.6666 25.6595 31.9106 28.7852 28.785C31.9108 25.6594 33.6667 21.4202 33.6667 16.9999C33.6667 14.8112 33.2356 12.644 32.398 10.6219C31.5605 8.59977 30.3328 6.76245 28.7852 5.21481C27.2375 3.66716 25.4002 2.4395 23.3781 1.60193C21.356 0.764348 19.1887 0.333252 17 0.333252Z" fill="white"/>
</svg>
